<svg width="20" height="18" viewBox="0 0 20 18" fill="none" xmlns="http://www.w3.org/2000/svg">
    <path
        d="M9.92368 0C4.44302 0 0 4.02947 0 9C0 13.9708 4.44302 18 9.92368 18C15.4047 18 19.8474 13.9708 19.8474 9C19.8474 4.02947 15.4047 0 9.92368 0ZM9.92368 16.8927C5.13582 16.8927 1.24046 13.3422 1.24046 8.99996C1.24046 4.65775 5.13582 1.12496 9.92368 1.12496C14.7116 1.12496 18.6069 4.65776 18.6069 8.99996C18.6069 13.3422 14.7116 16.8927 9.92368 16.8927ZM13.8842 5.70684L8.06173 11.0205L5.43971 8.64253C5.19751 8.42288 4.8049 8.42288 4.56239 8.64253C4.32019 8.86219 4.32019 9.21825 4.56239 9.43791L7.63222 12.2223C7.87442 12.4417 8.26703 12.4417 8.50954 12.2223C8.53745 12.197 8.56135 12.1694 8.58306 12.1407L14.7618 6.50248C15.0037 6.28283 15.0037 5.92676 14.7618 5.70684C14.5193 5.48719 14.1267 5.48719 13.8842 5.70684Z"
        fill="#12A05C" />
</svg>